<?xml version="1.0" encoding="UTF-8"?>
<svg xmlns="http://www.w3.org/2000/svg" xmlns:xlink="http://www.w3.org/1999/xlink" width="84pt" height="70pt" viewBox="0 0 84 70" version="1.1">
<g id="surface1">
<path style=" stroke:none;fill-rule:nonzero;fill:rgb(0%,65.098572%,31.399536%);fill-opacity:1;" d="M 9.324219 19.628906 L 6.878906 19.628906 L 5.785156 15.65625 L 5.75 15.65625 L 4.914063 19.628906 L 2.527344 19.628906 L 4.214844 11.601563 L 7.328125 11.601563 C 7.949219 11.601563 8.550781 11.691406 9.132813 11.871094 C 9.710938 12.050781 10.097656 12.332031 10.28125 12.714844 C 10.460938 13.09375 10.511719 13.488281 10.421875 13.902344 C 10.320313 14.398438 10.085938 14.804688 9.71875 15.125 C 9.359375 15.445313 8.828125 15.734375 8.128906 15.996094 Z M 5.84375 15.207031 C 6.625 15.207031 7.144531 15.09375 7.394531 14.875 C 7.648438 14.65625 7.8125 14.375 7.882813 14.035156 C 8.042969 13.269531 7.6875 12.886719 6.820313 12.886719 L 6.332031 12.886719 L 5.84375 15.207031 "/>
<path style=" stroke:none;fill-rule:nonzero;fill:rgb(0%,65.098572%,31.399536%);fill-opacity:1;" d="M 11.234375 15.570313 C 11.46875 14.445313 11.808594 13.617188 12.261719 13.09375 C 12.707031 12.5625 13.242188 12.15625 13.863281 11.863281 C 14.484375 11.574219 15.21875 11.425781 16.070313 11.425781 C 16.777344 11.425781 17.328125 11.511719 17.722656 11.679688 C 18.117188 11.851563 18.46875 12.097656 18.773438 12.417969 C 19.074219 12.742188 19.257813 13.144531 19.332031 13.621094 C 19.402344 14.097656 19.355469 14.734375 19.1875 15.523438 C 18.847656 17.136719 18.242188 18.253906 17.371094 18.867188 C 16.5 19.480469 15.472656 19.789063 14.296875 19.789063 C 13.09375 19.789063 12.203125 19.46875 11.621094 18.835938 C 11.039063 18.199219 10.910156 17.113281 11.234375 15.570313 Z M 13.867188 15.085938 L 13.757813 15.597656 C 13.582031 16.441406 13.5 16.996094 13.523438 17.265625 C 13.542969 17.53125 13.660156 17.746094 13.878906 17.898438 C 14.097656 18.054688 14.386719 18.128906 14.734375 18.128906 C 15.019531 18.128906 15.296875 18.054688 15.5625 17.90625 C 15.832031 17.753906 16.042969 17.527344 16.203125 17.222656 C 16.363281 16.914063 16.527344 16.371094 16.691406 15.585938 C 16.839844 14.882813 16.902344 14.382813 16.886719 14.085938 C 16.867188 13.785156 16.757813 13.546875 16.550781 13.363281 C 16.347656 13.179688 16.074219 13.085938 15.722656 13.085938 C 15.214844 13.085938 14.8125 13.242188 14.523438 13.566406 C 14.230469 13.882813 14.011719 14.390625 13.867188 15.085938 "/>
<path style=" stroke:none;fill-rule:nonzero;fill:rgb(0%,65.098572%,31.399536%);fill-opacity:1;" d="M 21.835938 11.601563 L 24.484375 11.601563 C 25.96875 11.601563 27.070313 11.941406 27.800781 12.628906 C 28.527344 13.3125 28.757813 14.300781 28.488281 15.585938 C 28.214844 16.882813 27.578125 17.882813 26.578125 18.578125 C 25.578125 19.28125 24.289063 19.628906 22.710938 19.628906 L 20.144531 19.628906 Z M 23.953125 13.046875 L 22.875 18.167969 L 23.160156 18.167969 C 23.636719 18.167969 24.167969 18.027344 24.746094 17.746094 C 25.324219 17.464844 25.722656 16.789063 25.945313 15.722656 C 26.113281 14.929688 26.132813 14.371094 26.011719 14.035156 C 25.890625 13.703125 25.660156 13.453125 25.320313 13.289063 C 24.980469 13.128906 24.613281 13.046875 24.21875 13.046875 L 23.953125 13.046875 "/>
<path style=" stroke:none;fill-rule:nonzero;fill:rgb(0%,65.098572%,31.399536%);fill-opacity:1;" d="M 29.972656 15.570313 C 30.210938 14.445313 30.550781 13.617188 31.003906 13.09375 C 31.449219 12.5625 31.984375 12.15625 32.605469 11.863281 C 33.226563 11.574219 33.960938 11.425781 34.8125 11.425781 C 35.519531 11.425781 36.066406 11.511719 36.464844 11.679688 C 36.859375 11.851563 37.210938 12.097656 37.511719 12.417969 C 37.816406 12.742188 38 13.144531 38.074219 13.621094 C 38.144531 14.097656 38.097656 14.734375 37.929688 15.523438 C 37.589844 17.136719 36.984375 18.253906 36.113281 18.867188 C 35.238281 19.480469 34.214844 19.789063 33.039063 19.789063 C 31.835938 19.789063 30.945313 19.46875 30.359375 18.835938 C 29.78125 18.199219 29.652344 17.113281 29.972656 15.570313 Z M 32.605469 15.085938 L 32.5 15.597656 C 32.320313 16.441406 32.242188 16.996094 32.265625 17.265625 C 32.28125 17.53125 32.402344 17.746094 32.621094 17.898438 C 32.839844 18.054688 33.128906 18.128906 33.476563 18.128906 C 33.761719 18.128906 34.035156 18.054688 34.304688 17.90625 C 34.574219 17.753906 34.785156 17.527344 34.945313 17.222656 C 35.105469 16.914063 35.265625 16.371094 35.433594 15.585938 C 35.582031 14.882813 35.644531 14.382813 35.625 14.085938 C 35.609375 13.785156 35.496094 13.546875 35.292969 13.363281 C 35.089844 13.179688 34.816406 13.085938 34.464844 13.085938 C 33.957031 13.085938 33.554688 13.242188 33.261719 13.566406 C 32.972656 13.882813 32.753906 14.390625 32.605469 15.085938 "/>
<path style=" stroke:none;fill-rule:nonzero;fill:rgb(0%,65.098572%,31.399536%);fill-opacity:1;" d="M 44.957031 15.585938 C 45.554688 15.800781 45.953125 16.0625 46.148438 16.378906 C 46.339844 16.6875 46.386719 17.097656 46.28125 17.601563 C 46.160156 18.171875 45.777344 18.65625 45.132813 19.042969 C 44.480469 19.433594 43.746094 19.628906 42.925781 19.628906 L 38.957031 19.628906 L 40.644531 11.601563 L 44.046875 11.601563 C 45.003906 11.601563 45.75 11.792969 46.28125 12.175781 C 46.8125 12.558594 47.015625 13.046875 46.890625 13.640625 C 46.792969 14.117188 46.589844 14.507813 46.28125 14.808594 C 45.976563 15.105469 45.535156 15.367188 44.957031 15.585938 Z M 42.339844 14.996094 L 42.824219 14.996094 C 43.226563 14.996094 43.570313 14.902344 43.847656 14.714844 C 44.128906 14.527344 44.300781 14.28125 44.367188 13.964844 C 44.519531 13.246094 44.09375 12.886719 43.089844 12.886719 L 42.78125 12.886719 Z M 41.636719 18.324219 L 42.332031 18.308594 C 42.742188 18.304688 43.078125 18.214844 43.339844 18.035156 C 43.601563 17.851563 43.769531 17.597656 43.839844 17.269531 C 43.984375 16.5625 43.5625 16.207031 42.570313 16.207031 L 42.082031 16.207031 L 41.636719 18.324219 "/>
<path style=" stroke:none;fill-rule:nonzero;fill:rgb(0%,65.098572%,31.399536%);fill-opacity:1;" d="M 53.089844 19.628906 L 47.558594 19.628906 L 49.246094 11.601563 L 54.433594 11.601563 L 54.105469 13.148438 L 51.300781 13.148438 L 50.957031 14.78125 L 53.363281 14.78125 L 53.050781 16.273438 L 50.644531 16.273438 L 50.273438 18.046875 L 53.421875 18.046875 L 53.089844 19.628906 "/>
<path style=" stroke:none;fill-rule:nonzero;fill:rgb(0%,65.098572%,31.399536%);fill-opacity:1;" d="M 62.507813 19.628906 L 59.976563 19.628906 L 58.222656 14.5625 L 58.183594 14.5625 L 57.121094 19.628906 L 54.796875 19.628906 L 56.488281 11.585938 L 59.105469 11.585938 L 60.835938 16.574219 L 60.878906 16.574219 L 61.925781 11.585938 L 64.199219 11.585938 L 62.507813 19.628906 "/>
<path style=" stroke:none;fill-rule:nonzero;fill:rgb(0%,65.098572%,31.399536%);fill-opacity:1;" d="M 70.699219 13.863281 C 70.175781 13.328125 69.628906 13.058594 69.046875 13.058594 C 68.789063 13.058594 68.542969 13.121094 68.3125 13.246094 C 68.082031 13.367188 67.953125 13.507813 67.917969 13.664063 C 67.859375 13.941406 68.113281 14.273438 68.675781 14.652344 C 69.269531 15.042969 69.683594 15.351563 69.921875 15.578125 C 70.15625 15.800781 70.328125 16.066406 70.4375 16.371094 C 70.546875 16.671875 70.5625 17.007813 70.484375 17.367188 C 70.335938 18.074219 69.902344 18.65625 69.183594 19.109375 C 68.464844 19.5625 67.613281 19.789063 66.632813 19.789063 C 65.824219 19.789063 65.082031 19.582031 64.398438 19.164063 L 64.796875 17.269531 C 65.414063 17.851563 66.09375 18.144531 66.835938 18.144531 C 67.164063 18.144531 67.453125 18.078125 67.707031 17.945313 C 67.957031 17.8125 68.097656 17.648438 68.140625 17.457031 C 68.199219 17.167969 67.984375 16.847656 67.488281 16.496094 C 66.703125 15.929688 66.199219 15.511719 65.976563 15.234375 C 65.753906 14.960938 65.601563 14.679688 65.523438 14.402344 C 65.441406 14.121094 65.429688 13.835938 65.492188 13.546875 C 65.621094 12.929688 66.027344 12.421875 66.710938 12.019531 C 67.390625 11.617188 68.195313 11.414063 69.121094 11.414063 C 69.816406 11.414063 70.484375 11.558594 71.121094 11.851563 L 70.699219 13.863281 "/>
<path style=" stroke:none;fill-rule:nonzero;fill:rgb(0%,65.098572%,31.399536%);fill-opacity:1;" d="M 5.757813 29.328125 C 5.011719 29.546875 4.34375 29.660156 3.746094 29.660156 C 3.335938 29.660156 2.972656 29.582031 2.652344 29.425781 C 2.332031 29.273438 2.09375 29.050781 1.945313 28.761719 C 1.789063 28.472656 1.714844 28.152344 1.714844 27.804688 C 1.714844 27.238281 1.863281 26.695313 2.164063 26.171875 C 2.460938 25.648438 2.859375 25.230469 3.351563 24.925781 C 3.847656 24.613281 4.4375 24.460938 5.128906 24.460938 C 5.609375 24.460938 6.121094 24.523438 6.65625 24.652344 L 6.496094 25.453125 C 5.949219 25.246094 5.460938 25.144531 5.035156 25.144531 C 4.640625 25.144531 4.289063 25.25 3.980469 25.460938 C 3.667969 25.671875 3.410156 25.988281 3.203125 26.410156 C 2.992188 26.828125 2.890625 27.242188 2.890625 27.65625 C 2.890625 27.910156 2.945313 28.136719 3.050781 28.332031 C 3.15625 28.527344 3.308594 28.675781 3.511719 28.773438 C 3.71875 28.867188 3.945313 28.917969 4.195313 28.917969 C 4.597656 28.917969 5.171875 28.800781 5.914063 28.570313 L 5.757813 29.328125 "/>
<path style=" stroke:none;fill-rule:nonzero;fill:rgb(0%,65.098572%,31.399536%);fill-opacity:1;" d="M 8.773438 29.660156 C 8.140625 29.660156 7.644531 29.488281 7.292969 29.148438 C 6.9375 28.808594 6.761719 28.351563 6.761719 27.78125 C 6.761719 27.230469 6.90625 26.695313 7.203125 26.179688 C 7.5 25.660156 7.890625 25.246094 8.382813 24.933594 C 8.875 24.617188 9.449219 24.460938 10.101563 24.460938 C 10.757813 24.460938 11.261719 24.632813 11.613281 24.972656 C 11.964844 25.316406 12.140625 25.769531 12.140625 26.339844 C 12.140625 26.890625 11.992188 27.421875 11.699219 27.933594 C 11.410156 28.449219 11.019531 28.863281 10.527344 29.183594 C 10.035156 29.5 9.449219 29.660156 8.773438 29.660156 Z M 9.011719 28.980469 C 9.347656 28.980469 9.664063 28.875 9.960938 28.660156 C 10.257813 28.449219 10.507813 28.132813 10.703125 27.710938 C 10.902344 27.285156 11 26.855469 11 26.417969 C 11 25.996094 10.898438 25.675781 10.695313 25.464844 C 10.488281 25.25 10.222656 25.144531 9.890625 25.144531 C 9.570313 25.144531 9.257813 25.25 8.953125 25.46875 C 8.648438 25.683594 8.402344 26.003906 8.207031 26.425781 C 8.015625 26.847656 7.917969 27.273438 7.917969 27.699219 C 7.917969 28.140625 8.023438 28.460938 8.234375 28.667969 C 8.445313 28.875 8.707031 28.980469 9.011719 28.980469 "/>
<path style=" stroke:none;fill-rule:nonzero;fill:rgb(0%,65.098572%,31.399536%);fill-opacity:1;" d="M 12.464844 29.535156 L 13.484375 24.585938 L 14.4375 24.585938 L 16.101563 28.035156 L 16.8125 24.585938 L 17.644531 24.585938 L 16.628906 29.535156 L 15.703125 29.535156 L 14.03125 26.082031 L 13.320313 29.535156 L 12.464844 29.535156 "/>
<path style=" stroke:none;fill-rule:nonzero;fill:rgb(0%,65.098572%,31.399536%);fill-opacity:1;" d="M 17.773438 29.476563 L 17.941406 28.675781 C 18.457031 28.875 18.894531 28.976563 19.253906 28.976563 C 19.582031 28.976563 19.832031 28.90625 19.996094 28.769531 C 20.164063 28.632813 20.246094 28.460938 20.246094 28.25 C 20.246094 28.070313 20.183594 27.914063 20.058594 27.78125 C 19.933594 27.648438 19.792969 27.53125 19.648438 27.425781 L 19.355469 27.21875 C 19.078125 27.019531 18.867188 26.824219 18.726563 26.636719 C 18.585938 26.445313 18.515625 26.234375 18.515625 25.996094 C 18.515625 25.722656 18.597656 25.46875 18.761719 25.226563 C 18.925781 24.988281 19.148438 24.800781 19.429688 24.664063 C 19.710938 24.53125 20.058594 24.464844 20.472656 24.464844 C 20.925781 24.464844 21.402344 24.535156 21.902344 24.683594 L 21.746094 25.429688 C 21.257813 25.238281 20.832031 25.144531 20.464844 25.144531 C 20.203125 25.144531 19.992188 25.199219 19.839844 25.316406 C 19.6875 25.429688 19.609375 25.578125 19.609375 25.757813 C 19.609375 25.890625 19.65625 26.011719 19.742188 26.117188 C 19.832031 26.222656 19.976563 26.347656 20.171875 26.492188 L 20.488281 26.722656 C 20.855469 26.988281 21.101563 27.222656 21.230469 27.425781 C 21.355469 27.632813 21.417969 27.84375 21.417969 28.070313 C 21.417969 28.339844 21.332031 28.597656 21.152344 28.855469 C 20.972656 29.109375 20.71875 29.308594 20.394531 29.449219 C 20.066406 29.589844 19.648438 29.660156 19.136719 29.660156 C 18.679688 29.660156 18.222656 29.597656 17.773438 29.476563 "/>
<path style=" stroke:none;fill-rule:nonzero;fill:rgb(0%,65.098572%,31.399536%);fill-opacity:1;" d="M 24.257813 29.660156 C 23.621094 29.660156 23.128906 29.488281 22.773438 29.148438 C 22.421875 28.808594 22.242188 28.351563 22.242188 27.78125 C 22.242188 27.230469 22.390625 26.695313 22.6875 26.179688 C 22.980469 25.660156 23.375 25.246094 23.867188 24.933594 C 24.359375 24.617188 24.933594 24.460938 25.585938 24.460938 C 26.242188 24.460938 26.746094 24.632813 27.097656 24.972656 C 27.449219 25.316406 27.621094 25.769531 27.621094 26.339844 C 27.621094 26.890625 27.476563 27.421875 27.183594 27.933594 C 26.894531 28.449219 26.503906 28.863281 26.011719 29.183594 C 25.519531 29.5 24.933594 29.660156 24.257813 29.660156 Z M 24.496094 28.980469 C 24.832031 28.980469 25.148438 28.875 25.445313 28.660156 C 25.742188 28.449219 25.988281 28.132813 26.1875 27.710938 C 26.386719 27.285156 26.484375 26.855469 26.484375 26.417969 C 26.484375 25.996094 26.382813 25.675781 26.179688 25.464844 C 25.972656 25.25 25.707031 25.144531 25.375 25.144531 C 25.054688 25.144531 24.738281 25.25 24.4375 25.46875 C 24.132813 25.683594 23.886719 26.003906 23.691406 26.425781 C 23.5 26.847656 23.402344 27.273438 23.402344 27.699219 C 23.402344 28.140625 23.507813 28.460938 23.71875 28.667969 C 23.929688 28.875 24.191406 28.980469 24.496094 28.980469 Z M 24.945313 24.171875 L 25.878906 23.183594 L 26.84375 23.183594 L 25.585938 24.171875 L 24.945313 24.171875 "/>
<path style=" stroke:none;fill-rule:nonzero;fill:rgb(0%,65.098572%,31.399536%);fill-opacity:1;" d="M 27.949219 29.535156 L 28.96875 24.585938 L 30.910156 24.585938 C 31.253906 24.585938 31.515625 24.617188 31.691406 24.679688 C 31.871094 24.742188 32.007813 24.851563 32.113281 25.007813 C 32.21875 25.160156 32.269531 25.339844 32.269531 25.539063 C 32.269531 25.867188 32.152344 26.179688 31.921875 26.484375 C 31.691406 26.785156 31.355469 27.035156 30.914063 27.230469 L 32.007813 29.535156 L 30.851563 29.535156 L 29.984375 27.472656 L 29.417969 27.472656 L 28.992188 29.535156 Z M 29.554688 26.8125 L 29.875 26.8125 C 30.277344 26.8125 30.59375 26.695313 30.820313 26.453125 C 31.046875 26.210938 31.160156 25.964844 31.160156 25.707031 C 31.160156 25.605469 31.136719 25.527344 31.085938 25.464844 C 31.035156 25.402344 30.957031 25.351563 30.84375 25.316406 C 30.726563 25.285156 30.507813 25.265625 30.179688 25.265625 L 29.875 25.265625 L 29.554688 26.8125 "/>
<path style=" stroke:none;fill-rule:nonzero;fill:rgb(0%,65.098572%,31.399536%);fill-opacity:1;" d="M 36.882813 29.328125 C 36.136719 29.546875 35.46875 29.660156 34.871094 29.660156 C 34.460938 29.660156 34.09375 29.582031 33.777344 29.425781 C 33.457031 29.273438 33.21875 29.050781 33.066406 28.761719 C 32.914063 28.472656 32.839844 28.152344 32.839844 27.804688 C 32.839844 27.238281 32.988281 26.695313 33.289063 26.171875 C 33.585938 25.648438 33.984375 25.230469 34.476563 24.925781 C 34.972656 24.613281 35.5625 24.460938 36.253906 24.460938 C 36.734375 24.460938 37.246094 24.523438 37.78125 24.652344 L 37.621094 25.453125 C 37.074219 25.246094 36.585938 25.144531 36.160156 25.144531 C 35.765625 25.144531 35.414063 25.25 35.101563 25.460938 C 34.792969 25.671875 34.535156 25.988281 34.328125 26.410156 C 34.117188 26.828125 34.015625 27.242188 34.015625 27.65625 C 34.015625 27.910156 34.070313 28.136719 34.171875 28.332031 C 34.28125 28.527344 34.433594 28.675781 34.636719 28.773438 C 34.84375 28.867188 35.070313 28.917969 35.320313 28.917969 C 35.722656 28.917969 36.296875 28.800781 37.039063 28.570313 L 36.882813 29.328125 "/>
<path style=" stroke:none;fill-rule:nonzero;fill:rgb(0%,65.098572%,31.399536%);fill-opacity:1;" d="M 37.78125 29.535156 L 38.800781 24.585938 L 39.867188 24.585938 L 38.84375 29.535156 L 37.78125 29.535156 "/>
<path style=" stroke:none;fill-rule:nonzero;fill:rgb(0%,65.098572%,31.399536%);fill-opacity:1;" d="M 42.203125 29.660156 C 41.570313 29.660156 41.074219 29.488281 40.722656 29.148438 C 40.367188 28.808594 40.191406 28.351563 40.191406 27.78125 C 40.191406 27.230469 40.335938 26.695313 40.632813 26.179688 C 40.929688 25.660156 41.320313 25.246094 41.8125 24.933594 C 42.304688 24.617188 42.878906 24.460938 43.535156 24.460938 C 44.1875 24.460938 44.691406 24.632813 45.042969 24.972656 C 45.394531 25.316406 45.570313 25.769531 45.570313 26.339844 C 45.570313 26.890625 45.421875 27.421875 45.132813 27.933594 C 44.839844 28.449219 44.449219 28.863281 43.957031 29.183594 C 43.464844 29.5 42.878906 29.660156 42.203125 29.660156 Z M 42.441406 28.980469 C 42.777344 28.980469 43.09375 28.875 43.390625 28.660156 C 43.691406 28.449219 43.9375 28.132813 44.132813 27.710938 C 44.332031 27.285156 44.429688 26.855469 44.429688 26.417969 C 44.429688 25.996094 44.328125 25.675781 44.125 25.464844 C 43.917969 25.25 43.652344 25.144531 43.320313 25.144531 C 43 25.144531 42.6875 25.25 42.382813 25.46875 C 42.078125 25.683594 41.832031 26.003906 41.636719 26.425781 C 41.445313 26.847656 41.347656 27.273438 41.347656 27.699219 C 41.347656 28.140625 41.453125 28.460938 41.664063 28.667969 C 41.878906 28.875 42.136719 28.980469 42.441406 28.980469 "/>
<path style=" stroke:none;fill-rule:evenodd;fill:rgb(0%,65.098572%,31.399536%);fill-opacity:1;" d="M 70.644531 0.753906 C 66.617188 0.753906 63.019531 2.589844 60.636719 5.46875 C 62.90625 3.65625 65.785156 2.570313 68.914063 2.570313 C 76.246094 2.570313 82.191406 8.515625 82.191406 15.84375 C 82.191406 18.050781 81.648438 20.132813 80.695313 21.964844 C 82.53125 19.722656 83.632813 16.859375 83.632813 13.742188 C 83.632813 6.570313 77.816406 0.753906 70.644531 0.753906 "/>
<path style=" stroke:none;fill-rule:nonzero;fill:rgb(0%,65.098572%,31.399536%);fill-opacity:1;" d="M 9.324219 59.035156 L 6.878906 59.035156 L 5.785156 55.0625 L 5.75 55.0625 L 4.914063 59.035156 L 2.527344 59.035156 L 4.214844 51.007813 L 7.328125 51.007813 C 7.949219 51.007813 8.550781 51.097656 9.132813 51.277344 C 9.710938 51.460938 10.097656 51.738281 10.28125 52.121094 C 10.460938 52.5 10.511719 52.898438 10.421875 53.3125 C 10.320313 53.804688 10.085938 54.214844 9.71875 54.535156 C 9.359375 54.851563 8.828125 55.144531 8.128906 55.40625 Z M 5.84375 54.613281 C 6.625 54.613281 7.144531 54.503906 7.394531 54.28125 C 7.648438 54.0625 7.8125 53.78125 7.882813 53.445313 C 8.042969 52.679688 7.6875 52.292969 6.820313 52.292969 L 6.332031 52.292969 Z M 11.234375 54.980469 C 11.46875 53.855469 11.808594 53.027344 12.261719 52.5 C 12.707031 51.972656 13.242188 51.566406 13.863281 51.273438 C 14.484375 50.980469 15.21875 50.835938 16.070313 50.835938 C 16.777344 50.835938 17.328125 50.917969 17.722656 51.089844 C 18.117188 51.257813 18.46875 51.503906 18.773438 51.828125 C 19.074219 52.152344 19.257813 52.550781 19.332031 53.03125 C 19.402344 53.507813 19.355469 54.140625 19.1875 54.929688 C 18.847656 56.542969 18.242188 57.660156 17.371094 58.277344 C 16.5 58.890625 15.472656 59.199219 14.296875 59.199219 C 13.09375 59.199219 12.203125 58.878906 11.621094 58.242188 C 11.039063 57.605469 10.910156 56.519531 11.234375 54.980469 Z M 13.867188 54.492188 L 13.757813 55.007813 C 13.582031 55.851563 13.5 56.40625 13.523438 56.675781 C 13.542969 56.941406 13.660156 57.15625 13.878906 57.308594 C 14.097656 57.460938 14.386719 57.539063 14.734375 57.539063 C 15.019531 57.539063 15.296875 57.464844 15.5625 57.316406 C 15.832031 57.164063 16.042969 56.933594 16.203125 56.628906 C 16.363281 56.324219 16.527344 55.777344 16.691406 54.992188 C 16.839844 54.292969 16.902344 53.792969 16.886719 53.492188 C 16.867188 53.195313 16.757813 52.957031 16.550781 52.769531 C 16.347656 52.585938 16.074219 52.496094 15.722656 52.496094 C 15.214844 52.496094 14.8125 52.652344 14.523438 52.972656 C 14.230469 53.289063 14.011719 53.796875 13.867188 54.492188 Z M 21.835938 51.007813 L 24.484375 51.007813 C 25.96875 51.007813 27.070313 51.351563 27.800781 52.039063 C 28.527344 52.722656 28.757813 53.707031 28.488281 54.992188 C 28.214844 56.292969 27.578125 57.289063 26.578125 57.988281 C 25.578125 58.6875 24.289063 59.035156 22.710938 59.035156 L 20.144531 59.035156 Z M 23.953125 52.457031 L 22.875 57.578125 L 23.160156 57.578125 C 23.636719 57.578125 24.167969 57.433594 24.746094 57.15625 C 25.324219 56.871094 25.722656 56.195313 25.945313 55.128906 C 26.113281 54.339844 26.132813 53.78125 26.011719 53.445313 C 25.890625 53.109375 25.660156 52.863281 25.320313 52.699219 C 24.980469 52.535156 24.613281 52.457031 24.21875 52.457031 Z M 29.972656 54.980469 C 30.210938 53.855469 30.550781 53.027344 31.003906 52.5 C 31.449219 51.972656 31.984375 51.566406 32.605469 51.273438 C 33.222656 50.980469 33.960938 50.835938 34.8125 50.835938 C 35.519531 50.835938 36.066406 50.917969 36.464844 51.089844 C 36.859375 51.257813 37.210938 51.503906 37.511719 51.828125 C 37.816406 52.152344 38 52.550781 38.074219 53.03125 C 38.144531 53.507813 38.097656 54.140625 37.929688 54.929688 C 37.589844 56.542969 36.984375 57.660156 36.113281 58.277344 C 35.238281 58.890625 34.214844 59.199219 33.039063 59.199219 C 31.835938 59.199219 30.945313 58.878906 30.359375 58.242188 C 29.78125 57.605469 29.652344 56.519531 29.972656 54.980469 Z M 32.605469 54.492188 L 32.5 55.007813 C 32.320313 55.851563 32.242188 56.40625 32.265625 56.675781 C 32.28125 56.941406 32.402344 57.15625 32.621094 57.308594 C 32.839844 57.460938 33.128906 57.539063 33.476563 57.539063 C 33.761719 57.539063 34.035156 57.464844 34.304688 57.316406 C 34.574219 57.164063 34.785156 56.933594 34.945313 56.628906 C 35.105469 56.324219 35.265625 55.777344 35.433594 54.992188 C 35.582031 54.292969 35.644531 53.792969 35.625 53.492188 C 35.609375 53.195313 35.496094 52.957031 35.292969 52.769531 C 35.089844 52.585938 34.816406 52.496094 34.464844 52.496094 C 33.957031 52.496094 33.554688 52.652344 33.261719 52.972656 C 32.972656 53.289063 32.753906 53.796875 32.605469 54.492188 Z M 44.957031 54.992188 C 45.554688 55.207031 45.953125 55.472656 46.148438 55.785156 C 46.34375 56.097656 46.386719 56.507813 46.28125 57.011719 C 46.160156 57.582031 45.777344 58.0625 45.132813 58.453125 C 44.484375 58.84375 43.746094 59.035156 42.925781 59.035156 L 38.957031 59.035156 L 40.644531 51.007813 L 44.046875 51.007813 C 45.003906 51.007813 45.75 51.199219 46.28125 51.585938 C 46.8125 51.96875 47.015625 52.457031 46.890625 53.046875 C 46.792969 53.527344 46.589844 53.917969 46.28125 54.21875 C 45.976563 54.515625 45.535156 54.777344 44.957031 54.992188 Z M 42.339844 54.402344 L 42.824219 54.402344 C 43.226563 54.402344 43.570313 54.308594 43.847656 54.121094 C 44.128906 53.9375 44.300781 53.6875 44.367188 53.375 C 44.519531 52.65625 44.09375 52.292969 43.089844 52.292969 L 42.78125 52.292969 Z M 41.636719 57.730469 L 42.332031 57.71875 C 42.742188 57.714844 43.078125 57.621094 43.339844 57.441406 C 43.601563 57.261719 43.769531 57.007813 43.839844 56.679688 C 43.984375 55.972656 43.5625 55.617188 42.570313 55.617188 L 42.082031 55.617188 Z M 53.089844 59.035156 L 47.558594 59.035156 L 49.246094 51.007813 L 54.433594 51.007813 L 54.105469 52.558594 L 51.300781 52.558594 L 50.957031 54.191406 L 53.363281 54.191406 L 53.050781 55.683594 L 50.644531 55.683594 L 50.269531 57.457031 L 53.421875 57.457031 Z M 62.507813 59.035156 L 59.976563 59.035156 L 58.222656 53.972656 L 58.183594 53.972656 L 57.121094 59.035156 L 54.796875 59.035156 L 56.488281 50.996094 L 59.105469 50.996094 L 60.835938 55.984375 L 60.878906 55.984375 L 61.925781 50.996094 L 64.199219 50.996094 Z M 70.699219 53.269531 C 70.175781 52.734375 69.628906 52.46875 69.046875 52.46875 C 68.789063 52.46875 68.542969 52.53125 68.3125 52.65625 C 68.082031 52.777344 67.953125 52.917969 67.917969 53.070313 C 67.859375 53.351563 68.113281 53.679688 68.675781 54.0625 C 69.269531 54.453125 69.683594 54.757813 69.921875 54.984375 C 70.15625 55.207031 70.328125 55.472656 70.4375 55.777344 C 70.546875 56.082031 70.5625 56.414063 70.484375 56.773438 C 70.335938 57.480469 69.902344 58.0625 69.183594 58.515625 C 68.464844 58.972656 67.613281 59.199219 66.632813 59.199219 C 65.824219 59.199219 65.082031 58.992188 64.398438 58.574219 L 64.796875 56.679688 C 65.414063 57.261719 66.09375 57.550781 66.835938 57.550781 C 67.164063 57.550781 67.453125 57.484375 67.707031 57.351563 C 67.957031 57.21875 68.097656 57.058594 68.140625 56.863281 C 68.199219 56.578125 67.984375 56.257813 67.488281 55.90625 C 66.703125 55.339844 66.199219 54.921875 65.976563 54.644531 C 65.753906 54.367188 65.601563 54.089844 65.523438 53.808594 C 65.441406 53.527344 65.429688 53.242188 65.492188 52.957031 C 65.621094 52.339844 66.03125 51.828125 66.710938 51.425781 C 67.390625 51.023438 68.195313 50.824219 69.121094 50.824219 C 69.816406 50.824219 70.484375 50.96875 71.121094 51.257813 L 70.699219 53.269531 "/>
<path style=" stroke:none;fill-rule:nonzero;fill:rgb(0%,65.098572%,31.399536%);fill-opacity:1;" d="M 5.757813 68.738281 C 5.011719 68.957031 4.34375 69.066406 3.746094 69.066406 C 3.335938 69.066406 2.972656 68.988281 2.652344 68.835938 C 2.332031 68.679688 2.09375 68.457031 1.945313 68.167969 C 1.789063 67.882813 1.714844 67.5625 1.714844 67.210938 C 1.714844 66.648438 1.863281 66.105469 2.164063 65.582031 C 2.460938 65.058594 2.859375 64.640625 3.351563 64.332031 C 3.847656 64.023438 4.4375 63.871094 5.128906 63.871094 C 5.609375 63.871094 6.121094 63.933594 6.65625 64.058594 L 6.496094 64.863281 C 5.949219 64.65625 5.460938 64.550781 5.035156 64.550781 C 4.640625 64.550781 4.289063 64.65625 3.980469 64.867188 C 3.667969 65.082031 3.410156 65.398438 3.203125 65.816406 C 2.992188 66.238281 2.890625 66.652344 2.890625 67.066406 C 2.890625 67.320313 2.945313 67.542969 3.050781 67.738281 C 3.15625 67.9375 3.308594 68.082031 3.511719 68.179688 C 3.71875 68.277344 3.945313 68.324219 4.195313 68.324219 C 4.597656 68.324219 5.171875 68.210938 5.914063 67.980469 Z M 8.773438 69.066406 C 8.140625 69.066406 7.644531 68.898438 7.292969 68.558594 C 6.9375 68.21875 6.761719 67.761719 6.761719 67.1875 C 6.761719 66.636719 6.90625 66.105469 7.203125 65.585938 C 7.5 65.070313 7.890625 64.65625 8.382813 64.339844 C 8.875 64.027344 9.449219 63.871094 10.101563 63.871094 C 10.757813 63.871094 11.261719 64.039063 11.613281 64.382813 C 11.964844 64.722656 12.140625 65.179688 12.140625 65.75 C 12.140625 66.300781 11.992188 66.832031 11.703125 67.34375 C 11.410156 67.859375 11.019531 68.273438 10.527344 68.589844 C 10.035156 68.910156 9.449219 69.066406 8.773438 69.066406 Z M 9.011719 68.386719 C 9.347656 68.386719 9.664063 68.28125 9.960938 68.070313 C 10.257813 67.859375 10.507813 67.542969 10.703125 67.117188 C 10.902344 66.695313 11 66.265625 11 65.828125 C 11 65.402344 10.898438 65.082031 10.695313 64.871094 C 10.488281 64.65625 10.222656 64.550781 9.890625 64.550781 C 9.570313 64.550781 9.257813 64.660156 8.953125 64.875 C 8.648438 65.09375 8.402344 65.410156 8.207031 65.832031 C 8.015625 66.253906 7.917969 66.679688 7.917969 67.109375 C 7.917969 67.546875 8.023438 67.871094 8.234375 68.078125 C 8.445313 68.285156 8.707031 68.386719 9.011719 68.386719 Z M 12.464844 68.945313 L 13.484375 63.996094 L 14.4375 63.996094 L 16.101563 67.445313 L 16.8125 63.996094 L 17.644531 63.996094 L 16.628906 68.945313 L 15.703125 68.945313 L 14.03125 65.488281 L 13.320313 68.945313 Z M 17.773438 68.886719 L 17.941406 68.085938 C 18.457031 68.285156 18.894531 68.386719 19.253906 68.386719 C 19.582031 68.386719 19.832031 68.316406 19.996094 68.179688 C 20.164063 68.042969 20.246094 67.867188 20.246094 67.660156 C 20.246094 67.480469 20.183594 67.324219 20.058594 67.191406 C 19.933594 67.058594 19.792969 66.9375 19.648438 66.832031 L 19.355469 66.628906 C 19.078125 66.429688 18.867188 66.234375 18.726563 66.042969 C 18.585938 65.855469 18.515625 65.640625 18.515625 65.40625 C 18.515625 65.132813 18.597656 64.875 18.761719 64.636719 C 18.925781 64.394531 19.148438 64.210938 19.429688 64.074219 C 19.710938 63.941406 20.058594 63.875 20.472656 63.875 C 20.925781 63.875 21.402344 63.945313 21.902344 64.09375 L 21.746094 64.839844 C 21.257813 64.648438 20.832031 64.550781 20.464844 64.550781 C 20.203125 64.550781 19.992188 64.609375 19.839844 64.722656 C 19.6875 64.839844 19.609375 64.988281 19.609375 65.167969 C 19.609375 65.300781 19.65625 65.421875 19.742188 65.527344 C 19.832031 65.632813 19.976563 65.757813 20.171875 65.902344 L 20.488281 66.132813 C 20.855469 66.398438 21.101563 66.632813 21.230469 66.835938 C 21.355469 67.039063 21.417969 67.253906 21.417969 67.480469 C 21.417969 67.746094 21.332031 68.007813 21.152344 68.265625 C 20.972656 68.519531 20.71875 68.714844 20.394531 68.855469 C 20.066406 68.996094 19.648438 69.066406 19.136719 69.066406 C 18.679688 69.066406 18.222656 69.007813 17.773438 68.886719 Z M 24.257813 69.066406 C 23.621094 69.066406 23.128906 68.898438 22.773438 68.558594 C 22.421875 68.21875 22.242188 67.761719 22.242188 67.1875 C 22.242188 66.636719 22.390625 66.105469 22.6875 65.585938 C 22.980469 65.070313 23.375 64.65625 23.867188 64.339844 C 24.359375 64.027344 24.933594 63.871094 25.585938 63.871094 C 26.242188 63.871094 26.746094 64.039063 27.097656 64.382813 C 27.449219 64.722656 27.621094 65.179688 27.621094 65.75 C 27.621094 66.300781 27.476563 66.832031 27.183594 67.34375 C 26.894531 67.859375 26.503906 68.273438 26.011719 68.589844 C 25.519531 68.910156 24.933594 69.066406 24.257813 69.066406 Z M 24.496094 68.386719 C 24.832031 68.386719 25.148438 68.28125 25.445313 68.070313 C 25.742188 67.859375 25.988281 67.542969 26.1875 67.117188 C 26.386719 66.695313 26.484375 66.265625 26.484375 65.828125 C 26.484375 65.402344 26.382813 65.082031 26.179688 64.871094 C 25.972656 64.65625 25.707031 64.550781 25.375 64.550781 C 25.054688 64.550781 24.738281 64.660156 24.4375 64.875 C 24.132813 65.09375 23.886719 65.410156 23.691406 65.832031 C 23.5 66.253906 23.402344 66.679688 23.402344 67.109375 C 23.402344 67.546875 23.507813 67.871094 23.71875 68.078125 C 23.929688 68.285156 24.191406 68.386719 24.496094 68.386719 Z M 24.945313 63.582031 L 25.878906 62.59375 L 26.84375 62.59375 L 25.585938 63.582031 Z M 27.949219 68.945313 L 28.96875 63.996094 L 30.910156 63.996094 C 31.253906 63.996094 31.515625 64.027344 31.691406 64.089844 C 31.871094 64.152344 32.007813 64.261719 32.113281 64.417969 C 32.21875 64.570313 32.269531 64.75 32.269531 64.949219 C 32.269531 65.273438 32.152344 65.585938 31.921875 65.890625 C 31.691406 66.195313 31.355469 66.445313 30.914063 66.640625 L 32.007813 68.945313 L 30.851563 68.945313 L 29.984375 66.882813 L 29.417969 66.882813 L 28.992188 68.945313 Z M 29.554688 66.222656 L 29.875 66.222656 C 30.277344 66.222656 30.59375 66.101563 30.820313 65.863281 C 31.046875 65.621094 31.160156 65.371094 31.160156 65.117188 C 31.160156 65.015625 31.136719 64.933594 31.085938 64.871094 C 31.035156 64.808594 30.957031 64.761719 30.84375 64.726563 C 30.726563 64.691406 30.507813 64.675781 30.179688 64.675781 L 29.875 64.675781 Z M 36.882813 68.738281 C 36.136719 68.957031 35.46875 69.066406 34.871094 69.066406 C 34.460938 69.066406 34.09375 68.988281 33.777344 68.835938 C 33.457031 68.679688 33.21875 68.457031 33.066406 68.167969 C 32.914063 67.882813 32.839844 67.5625 32.839844 67.210938 C 32.839844 66.648438 32.988281 66.105469 33.289063 65.582031 C 33.585938 65.058594 33.984375 64.640625 34.476563 64.332031 C 34.972656 64.023438 35.5625 63.871094 36.253906 63.871094 C 36.734375 63.871094 37.246094 63.933594 37.78125 64.058594 L 37.621094 64.863281 C 37.074219 64.65625 36.585938 64.550781 36.160156 64.550781 C 35.765625 64.550781 35.414063 64.65625 35.101563 64.867188 C 34.792969 65.082031 34.535156 65.398438 34.328125 65.816406 C 34.117188 66.238281 34.015625 66.652344 34.015625 67.066406 C 34.015625 67.320313 34.070313 67.542969 34.171875 67.738281 C 34.277344 67.9375 34.433594 68.082031 34.636719 68.179688 C 34.84375 68.277344 35.070313 68.324219 35.320313 68.324219 C 35.722656 68.324219 36.296875 68.210938 37.039063 67.980469 Z M 37.78125 68.945313 L 38.800781 63.996094 L 39.867188 63.996094 L 38.84375 68.945313 Z M 42.203125 69.066406 C 41.570313 69.066406 41.074219 68.898438 40.722656 68.558594 C 40.367188 68.21875 40.191406 67.761719 40.191406 67.1875 C 40.191406 66.636719 40.335938 66.105469 40.632813 65.585938 C 40.929688 65.070313 41.320313 64.65625 41.8125 64.339844 C 42.304688 64.027344 42.878906 63.871094 43.535156 63.871094 C 44.1875 63.871094 44.691406 64.039063 45.042969 64.382813 C 45.394531 64.722656 45.570313 65.179688 45.570313 65.75 C 45.570313 66.300781 45.421875 66.832031 45.132813 67.34375 C 44.839844 67.859375 44.449219 68.273438 43.957031 68.589844 C 43.464844 68.910156 42.878906 69.066406 42.203125 69.066406 Z M 42.441406 68.386719 C 42.777344 68.386719 43.09375 68.28125 43.390625 68.070313 C 43.691406 67.859375 43.9375 67.542969 44.132813 67.117188 C 44.332031 66.695313 44.429688 66.265625 44.429688 65.828125 C 44.429688 65.402344 44.328125 65.082031 44.125 64.871094 C 43.917969 64.65625 43.652344 64.550781 43.320313 64.550781 C 43 64.550781 42.6875 64.660156 42.382813 64.875 C 42.078125 65.09375 41.832031 65.410156 41.636719 65.832031 C 41.445313 66.253906 41.347656 66.679688 41.347656 67.109375 C 41.347656 67.546875 41.453125 67.871094 41.664063 68.078125 C 41.875 68.285156 42.136719 68.386719 42.441406 68.386719 "/>
<path style=" stroke:none;fill-rule:evenodd;fill:rgb(0%,65.098572%,31.399536%);fill-opacity:1;" d="M 70.644531 40.164063 C 66.617188 40.164063 63.019531 42 60.636719 44.878906 C 62.90625 43.0625 65.785156 41.976563 68.914063 41.976563 C 76.246094 41.976563 82.191406 47.921875 82.191406 55.253906 C 82.191406 57.460938 81.648438 59.539063 80.695313 61.371094 C 82.53125 59.132813 83.632813 56.269531 83.632813 53.148438 C 83.632813 45.980469 77.816406 40.164063 70.644531 40.164063 "/>
</g>
</svg>
