<?xml version="1.0" standalone="no"?>
<svg xmlns:xlink="http://www.w3.org/1999/xlink" id="wave" style="transform:rotate(180deg); transition: 0.3s" viewBox="0 0 1440 100" version="1.1" xmlns="http://www.w3.org/2000/svg"><defs><linearGradient id="sw-gradient-0" x1="0" x2="0" y1="1" y2="0"><stop stop-color="rgba(72, 80, 137, 1)" offset="0%"/><stop stop-color="rgba(72, 80, 137, 1)" offset="100%"/></linearGradient></defs><path style="transform:translate(0, 0px); opacity:1" fill="url(#sw-gradient-0)" d="M0,50L15,55C30,60,60,70,90,73.3C120,77,150,73,180,66.7C210,60,240,50,270,45C300,40,330,40,360,41.7C390,43,420,47,450,48.3C480,50,510,50,540,41.7C570,33,600,17,630,15C660,13,690,27,720,35C750,43,780,47,810,51.7C840,57,870,63,900,68.3C930,73,960,77,990,71.7C1020,67,1050,53,1080,41.7C1110,30,1140,20,1170,15C1200,10,1230,10,1260,21.7C1290,33,1320,57,1350,68.3C1380,80,1410,80,1440,78.3C1470,77,1500,73,1530,75C1560,77,1590,83,1620,76.7C1650,70,1680,50,1710,48.3C1740,47,1770,63,1800,65C1830,67,1860,53,1890,51.7C1920,50,1950,60,1980,65C2010,70,2040,70,2070,71.7C2100,73,2130,77,2145,78.3L2160,80L2160,100L2145,100C2130,100,2100,100,2070,100C2040,100,2010,100,1980,100C1950,100,1920,100,1890,100C1860,100,1830,100,1800,100C1770,100,1740,100,1710,100C1680,100,1650,100,1620,100C1590,100,1560,100,1530,100C1500,100,1470,100,1440,100C1410,100,1380,100,1350,100C1320,100,1290,100,1260,100C1230,100,1200,100,1170,100C1140,100,1110,100,1080,100C1050,100,1020,100,990,100C960,100,930,100,900,100C870,100,840,100,810,100C780,100,750,100,720,100C690,100,660,100,630,100C600,100,570,100,540,100C510,100,480,100,450,100C420,100,390,100,360,100C330,100,300,100,270,100C240,100,210,100,180,100C150,100,120,100,90,100C60,100,30,100,15,100L0,100Z"/></svg>