<?xml version="1.0" standalone="no"?>
<svg xmlns:xlink="http://www.w3.org/1999/xlink" id="wave" style="transform:rotate(0deg); transition: 0.3s" viewBox="0 0 1440 100" version="1.1" xmlns="http://www.w3.org/2000/svg"><defs><linearGradient id="sw-gradient-0" x1="0" x2="0" y1="1" y2="0"><stop stop-color="rgba(25, 5, 64, 1)" offset="0%"/><stop stop-color="rgba(25, 5, 64, 1)" offset="100%"/></linearGradient></defs><path style="transform:translate(0, 0px); opacity:1" fill="url(#sw-gradient-0)" d="M0,50L10.9,55C21.8,60,44,70,65,73.3C87.3,77,109,73,131,66.7C152.7,60,175,50,196,45C218.2,40,240,40,262,41.7C283.6,43,305,47,327,48.3C349.1,50,371,50,393,41.7C414.5,33,436,17,458,15C480,13,502,27,524,35C545.5,43,567,47,589,51.7C610.9,57,633,63,655,68.3C676.4,73,698,77,720,71.7C741.8,67,764,53,785,41.7C807.3,30,829,20,851,15C872.7,10,895,10,916,21.7C938.2,33,960,57,982,68.3C1003.6,80,1025,80,1047,78.3C1069.1,77,1091,73,1113,75C1134.5,77,1156,83,1178,76.7C1200,70,1222,50,1244,48.3C1265.5,47,1287,63,1309,65C1330.9,67,1353,53,1375,51.7C1396.4,50,1418,60,1440,65C1461.8,70,1484,70,1505,71.7C1527.3,73,1549,77,1560,78.3L1570.9,80L1570.9,100L1560,100C1549.1,100,1527,100,1505,100C1483.6,100,1462,100,1440,100C1418.2,100,1396,100,1375,100C1352.7,100,1331,100,1309,100C1287.3,100,1265,100,1244,100C1221.8,100,1200,100,1178,100C1156.4,100,1135,100,1113,100C1090.9,100,1069,100,1047,100C1025.5,100,1004,100,982,100C960,100,938,100,916,100C894.5,100,873,100,851,100C829.1,100,807,100,785,100C763.6,100,742,100,720,100C698.2,100,676,100,655,100C632.7,100,611,100,589,100C567.3,100,545,100,524,100C501.8,100,480,100,458,100C436.4,100,415,100,393,100C370.9,100,349,100,327,100C305.5,100,284,100,262,100C240,100,218,100,196,100C174.5,100,153,100,131,100C109.1,100,87,100,65,100C43.6,100,22,100,11,100L0,100Z"/></svg>